# xmcd
#
# Track frame offsets:
#  150
#  16927
#  38255
#  51548
#  67187
#  84358
#  96547
#  117956
#  134959
#  154082
#  164609
#  181467
#  200325
#  220213
#  234331
#  255779
#
# Disc length: 3600 seconds
#
# Revision: 0
# Processed by: cddbd v1.4PL0 Copyright (c) Steve Scherf et al.
# Submitted via: AltoMP3_Maker 3.0
#
DISCID=e00e0e10
DTITLE=Claude Martel - La collection
DYEAR=1900
DGENRE=
TTITLE0=Je pensais toujours à toi
TTITLE1=J'ai oublier de vivre
TTITLE2=Aline
TTITLE3=A cause de toi
TTITLE4=C'est pour toi que je chante
TTITLE5=Victoria
TTITLE6=Souvenir d'un vieillard
TTITLE7=Six heures moins quart
TTITLE8=Le temps qu'il nous reste
TTITLE9=Aiko-Aiko
TTITLE10=Si il n'y avait plus de lendemain
TTITLE11=Quand on est en amour
TTITLE12=Jamais
TTITLE13=A ma mère
TTITLE14=Quand j'aime une fois...J'aime pour toujours
TTITLE15=Mille après mille
EXTD=
EXTT0=
EXTT1=
EXTT2=
EXTT3=
EXTT4=
EXTT5=
EXTT6=
EXTT7=
EXTT8=
EXTT9=
EXTT10=
EXTT11=
EXTT12=
EXTT13=
EXTT14=
EXTT15=
PLAYORDER=
